<svg xmlns="http://www.w3.org/2000/svg" xmlns:xlink="http://www.w3.org/1999/xlink" width="81.271" height="65.91" viewBox="0 0 81.271 65.91">
  <defs>
    <radialGradient id="radial-gradient" cx="0.501" cy="0.499" r="0.502" gradientTransform="matrix(0.612, -0.785, -0.777, -0.622, 14.25, 29.955)" gradientUnits="objectBoundingBox">
      <stop offset="0" stop-color="#fff"/>
      <stop offset="0.13" stop-color="#fcfdfe"/>
      <stop offset="0.235" stop-color="#f4f6fa"/>
      <stop offset="0.331" stop-color="#e5e9f3"/>
      <stop offset="0.421" stop-color="#d0d8e9"/>
      <stop offset="0.508" stop-color="#b4c3dc"/>
      <stop offset="0.592" stop-color="#90a9cc"/>
      <stop offset="0.674" stop-color="#618dba"/>
      <stop offset="0.752" stop-color="#1a71a5"/>
      <stop offset="0.8" stop-color="#006098"/>
      <stop offset="1" stop-color="#006098"/>
    </radialGradient>
  </defs>
  <g id="ceder-invest-logo-dark" transform="translate(-0.667 -0.333)">
    <path id="Path_1" data-name="Path 1" d="M.667,110.194a7.48,7.48,0,0,1,7.611-7.677,7.119,7.119,0,0,1,6.273,3.572l-.983.574a5.945,5.945,0,0,0-5.29-3.063,6.593,6.593,0,0,0,0,13.185,5.96,5.96,0,0,0,5.332-3.126l.983.574a7.126,7.126,0,0,1-6.315,3.637A7.481,7.481,0,0,1,.667,110.194Zm29.147,6.38v1.063H21.387V102.751h8.322v1.063H22.5V109.6h6.692v1.063H22.5v5.912Z" transform="translate(0 -51.627)" fill="#006098"/>
    <path id="Path_2" data-name="Path 2" d="M79.02,117.875c4.036,0,6.9-3.339,6.9-7.443s-2.865-7.443-6.9-7.443h-5.5v14.886Zm0-13.823c3.45,0,5.813,2.85,5.813,6.38s-2.363,6.379-5.813,6.379H74.629V104.052Z" transform="translate(-36.808 -51.865)" fill="#006098" fill-rule="evenodd"/>
    <path id="Path_3" data-name="Path 3" d="M121.122,116.812v1.063H112.7V102.989h8.322v1.063H113.8v5.784H120.5V110.9H113.8v5.912Z" transform="translate(-56.601 -51.865)" fill="#006098"/>
    <path id="Path_4" data-name="Path 4" d="M144.779,111.772H149.4l3.513,6.1h1.275l-3.638-6.252a4.4,4.4,0,0,0-1.108-8.634h-5.771v14.886h1.108v-6.1Zm4.663-1.063h-4.663v-6.656h4.663a3.33,3.33,0,0,1,0,6.656Z" transform="translate(-72.251 -51.865)" fill="#006098" fill-rule="evenodd"/>
    <ellipse id="Ellipse_1" data-name="Ellipse 1" cx="19.83" cy="19.585" rx="19.83" ry="19.585" transform="translate(22.349 0.333)" fill="#fff"/>
    <path id="Path_5" data-name="Path 5" d="M76.725,5.387a18.919,18.919,0,0,1,3.351,26.775,19.478,19.478,0,0,1-27.11,3.309A18.92,18.92,0,0,1,49.616,8.7,19.477,19.477,0,0,1,76.725,5.387Z" transform="translate(-22.666 -0.514)" fill="#74cae6" stroke="#fff" stroke-width="0.812"/>
    <path id="Path_6" data-name="Path 6" d="M76.724,5.387a18.919,18.919,0,0,1,3.352,26.775A19.478,19.478,0,0,1,52.966,35.47,18.919,18.919,0,0,1,49.615,8.7,19.477,19.477,0,0,1,76.724,5.387Z" transform="translate(-22.666 -0.514)" fill="url(#radial-gradient)"/>
    <g id="Group_1" data-name="Group 1" transform="translate(36.857 14.406)" opacity="0.55">
      <path id="Path_7" data-name="Path 7" d="M90.793,29.818a4.38,4.38,0,0,0,.946,0A4.412,4.412,0,0,0,90.793,29.818Zm-1.946,1.143-1.031-.047A2.9,2.9,0,0,0,88.847,30.961ZM85.7,31.976l1.03.047A2.874,2.874,0,0,0,85.7,31.976Zm6.017,1.988a2.011,2.011,0,0,0-.858-.039Zm-.093.145-.859-.039A2.021,2.021,0,0,0,91.628,34.109Zm-5.335-.016L84.318,34A10.591,10.591,0,0,0,86.293,34.093Zm-4.829.229-1.17-.053-.006,0A3.984,3.984,0,0,0,81.464,34.322Zm12.232,1.6a2.44,2.44,0,0,0-.945-.043l.945.043Zm3.179.107-.859-.039A2.021,2.021,0,0,0,96.874,36.025Zm-6.4.793-.945-.043A2.43,2.43,0,0,0,90.469,36.818Zm-.119,2.569-1.2-.054a3.923,3.923,0,0,0,1.2.054Zm-.61.159a6.206,6.206,0,0,0,1.115.088A6.21,6.21,0,0,0,89.741,39.546Zm-9.723-.028a6.215,6.215,0,0,0,1.118.013A6.261,6.261,0,0,0,80.018,39.518Zm9.1.448a8.3,8.3,0,0,0,1.29.021,8.358,8.358,0,0,0-1.29-.021Zm-13.43.231c.028,0,.058-.006.083-.012H75.7ZM87.072,41.44l1.116.05a3.411,3.411,0,0,0-1.116-.05Zm-7.233,1.95,1.117.05A3.387,3.387,0,0,0,79.839,43.39Zm-.35.133a4.381,4.381,0,0,0,.943.08A4.406,4.406,0,0,0,79.489,43.523Zm-2.516,2.312c.042.326-.148.739.04,1.009C76.97,46.519,77.161,46.105,76.973,45.835Zm.1,1.5c.036.462-.161,1.012.02,1.419C77.06,48.289,77.257,47.739,77.076,47.332ZM75.2,41.39l-.141-.089-.009.016C75.1,41.341,75.154,41.364,75.2,41.39Zm1.51,2.717c-.244.109-.348.287-.62.382A.945.945,0,0,0,76.708,44.107Zm10.017-.779a6.172,6.172,0,0,0-.925-.452A6.174,6.174,0,0,0,86.726,43.328Zm7.253-.531a1.66,1.66,0,0,1-.878.371C93.561,43.125,93.9,43.026,93.979,42.8ZM80.205,41.056c-.367-.007-.734-.013-.767-.146C79.262,41.1,80.043,41.116,80.205,41.056Zm8.248-1.568a4.11,4.11,0,0,1-1.182-.5C87.248,39.167,87.974,39.378,88.453,39.488Zm-.115-3.1c.328.095.558.227.845.336A1.9,1.9,0,0,0,88.338,36.386Zm-.494-2.336c-.141-.066-.917-.12-.946,0A4.766,4.766,0,0,1,87.844,34.05Z" transform="translate(-74.437 -29.287)" fill="#fff"/>
      <path id="Path_8" data-name="Path 8" d="M94.113,35.195a11.915,11.915,0,0,1-1.618-.371c-.517-.117-1.311-.206-1.355-.472a1.777,1.777,0,0,1,1.213-.169C92.3,33.837,91.69,33.7,91,33.6a2.021,2.021,0,0,1-.859-.039,11.693,11.693,0,0,1-2.925-.02,4.733,4.733,0,0,0-.946-.005c-.243,0-.361.052-.6.047a10.508,10.508,0,0,1-1.975-.089,14.861,14.861,0,0,1-2.854.319,4.017,4.017,0,0,1-1.176-.048,13.655,13.655,0,0,0-2.075,2.093,27.884,27.884,0,0,0-1.931,2.825c.018,0,.033,0,.051.01.408.32.322.967-.562.982-.025.005-.054.008-.083.012-.216.374-.425.742-.631,1.105l.141.089c.079.141.307.225.327.388a2.287,2.287,0,0,1-.849.2q-.12.212-.239.42a1.619,1.619,0,0,1,.369.059c.491.069.979.14,1.1.348-.128.331-1.082.259-1.148.62,1.215-.124,2.83.145,1.948.685a.947.947,0,0,1-.62.382c-.483.013-1.195.091-.961.33.277.177.83.024,1.372.1a2.111,2.111,0,0,1,.474.917c.188.27,0,.684.04,1.009,0,.172-.055.362.063.488.182.407-.015.957.02,1.419-.066,1.375,2.589.9,2.672-.1.048-.58-.5-1.065-.525-1.665-.007-.154.107-.294.107-.443,0-.71-.614-1.263-.517-1.852.135-.821,1.229-.691,2.781-.584.058-.156-.05-.248-.069-.376a5.513,5.513,0,0,0-1.113-.125,4.417,4.417,0,0,1-.943-.08,1.147,1.147,0,0,0-.341-.053c-.022-.187-.223-.305-.148-.529a6.907,6.907,0,0,1,3.449-.143c.685.154,1.1.652,1.956.5.312-.1,0-.51.455-.539a5.032,5.032,0,0,1,.941.117,6.176,6.176,0,0,1,.925.452,2.178,2.178,0,0,0,.854.15c.748-.272.237-1.027,1.256-1.1,1.12-.081,3.238.912,4.266.79a1.66,1.66,0,0,0,.878-.371c.217-.087-.075-.186.015-.335a29.568,29.568,0,0,0-3.081-.363,26.384,26.384,0,0,0-2.726-.609l-1.116-.05c-2.327.353-4.391-.589-6.866-.385-.163.06-.944.045-.767-.146-.129-.464-.814-1.355.58-1.392a6.261,6.261,0,0,1,1.118.013c.935.025,1.57-.319,2.594-.256.469.029.882.2,1.365.248,1.342.144,2.84.183,4.024.443a8.358,8.358,0,0,1,1.29.021c.461,0,.795-.069.873-.259a2.162,2.162,0,0,0-.426-.094,6.217,6.217,0,0,1-1.115-.087,6.083,6.083,0,0,1-1.288-.058c-.479-.111-1.2-.321-1.182-.5-.218-.478.826-.66.744-1.2a17.953,17.953,0,0,1,5.949-.254c-.174-.616-2.05-.916-3.5-.717a2.43,2.43,0,0,1-.945-.043,1.147,1.147,0,0,0-.342-.052c-.287-.11-.517-.242-.845-.336-1.18-.148-2.153.3-3.363.146-.595-.076-1.2-.437-1.086-.721.187-.464,2.483-.47,3.447-.105.192-.046-.037-.3.272-.286,1.1.272,1.7-.223,2.676-.178.676.032,1.318.376,2.044.465a28.931,28.931,0,0,1,3.687.279l.859.039c.319.054.249-.082.519-.051-.308-.566-1.718-.19-2.655-.269ZM83.946,31.751a5.271,5.271,0,0,1,1.132-.284,2.9,2.9,0,0,1,1.03.047c1.019.029,1.48.525,2.3.477.9-.053.5-.789,1.42-.944a9.449,9.449,0,0,0,2.657.233c.769-.857-2.986-1.055-4.264-.827a2.9,2.9,0,0,1-1.031-.047,5.572,5.572,0,0,1-1.262-.22c-.929.4-1.88.839-2.813,1.333C83.4,31.588,83.672,31.668,83.946,31.751Zm6.223-2.443a4.412,4.412,0,0,1,.946,0c.653.015.958-.141,1.051-.4a11.625,11.625,0,0,0-3.1-.033l-.579.241A10.641,10.641,0,0,1,90.168,29.308Z" transform="translate(-73.812 -28.778)" fill="#fff"/>
      <path id="Path_9" data-name="Path 9" d="M97.663,40.12l1.03.047A2.874,2.874,0,0,0,97.663,40.12Zm-.429-.019-1.288-.058A4.514,4.514,0,0,0,97.233,40.1Zm-9.319,4.281a2.432,2.432,0,0,0-.945-.043Zm-6.193-.056c.262-.011.737.081.86,0-.262.012-.738-.081-.861,0Zm-.829,4.888a.287.287,0,0,0-.021.447Zm.347,1.807c.045.251-.141.59.049.786C81.244,51.554,81.43,51.216,81.239,51.02ZM78.2,53.532l.017-.373C78.071,53.193,78.057,53.485,78.2,53.532Zm3.894-6.055,1.632.074A7.2,7.2,0,0,0,82.091,47.476Zm.009-2.052,1.2.054A3.922,3.922,0,0,0,82.1,45.424Zm-.271-6.574.006,0H81.8Z" transform="translate(-75.978 -33.864)" fill="#fff"/>
    </g>
    <g id="Group_2" data-name="Group 2" transform="translate(26.79 4.314)" opacity="0.75">
      <path id="Path_10" data-name="Path 10" d="M68.263,10.236l-.021.447A.287.287,0,0,0,68.263,10.236Zm2.38.63.945.043a2.442,2.442,0,0,0-.945-.043Zm-5.961.515a4.389,4.389,0,0,0-.946-.006,4.348,4.348,0,0,0,.946.005Zm2,1.47c-.262.011-.737-.081-.861,0C66.08,12.838,66.556,12.931,66.679,12.851Zm-3.658.954,1.031.047A2.889,2.889,0,0,0,63.021,13.805Zm10.263,1.359-1.2-.054A3.922,3.922,0,0,0,73.284,15.164Zm-1.3.239.859.039A2.021,2.021,0,0,0,71.982,15.4Zm-2.808,1.18.031-.67A.58.58,0,0,0,69.174,16.583ZM67.91,16l-.026.558A.419.419,0,0,0,67.91,16Zm-1.85.923-.858-.039a2.019,2.019,0,0,0,.858.039Zm10.7,1.118c.631,0,1.485.116,1.977.052C78.11,18.093,77.257,17.981,76.765,18.045Zm-15.866.7a10.835,10.835,0,0,0-1.462-.029A10.835,10.835,0,0,0,60.9,18.747Zm12.949.957L72.3,19.635a6.443,6.443,0,0,0,1.546.069Zm-.354.208-1.116-.05A3.411,3.411,0,0,0,73.494,19.913Zm-16.853-.276a7.253,7.253,0,0,0,1.2.017A7.254,7.254,0,0,0,56.641,19.637Zm6.552,1.6-.859-.039A2.021,2.021,0,0,0,63.193,21.239Zm-4.268,2.979a7.254,7.254,0,0,0-1.2-.017A7.253,7.253,0,0,0,58.925,24.218Zm1.715.115-1.2-.054A3.923,3.923,0,0,0,60.641,24.332Zm.589,2.154a10.754,10.754,0,0,0-1.462-.029,10.827,10.827,0,0,0,1.462.029Zm4.243-15.443a6.188,6.188,0,0,1-1.209.094A2.306,2.306,0,0,0,65.472,11.043ZM55.708,23.065a6.181,6.181,0,0,0,.964-.367A6.232,6.232,0,0,0,55.708,23.065Zm7.162-9.714a5.225,5.225,0,0,0,1.225-.43C63.656,13.05,63.3,13.218,62.87,13.351ZM59.158,15.46a3.664,3.664,0,0,0,.962-.33C59.8,15.239,59.452,15.337,59.158,15.46Zm4.561,1.847a3.717,3.717,0,0,0,1.049-.363C64.377,17.044,64.108,17.205,63.719,17.307Zm-5.087.218c.341-.1.634-.224.962-.33A3.3,3.3,0,0,0,58.632,17.525Zm8.09,1.82c.494.153.963.316,1.09.609C67.882,19.733,67.316,19.437,66.723,19.346Zm1.326,1.1c-.067.145.131.42-.192.439.265.127.393-.338.192-.439ZM56.685,22.4a6.515,6.515,0,0,0-1.228.5c.455-.146.811-.34,1.228-.5Zm8.5.31c-.226-.11-.378-.44-.67-.4C64.893,22.384,64.819,22.631,65.19,22.709Zm2.293.663c-.1.219.161.612-.2.7C67.652,24.164,67.618,23.529,67.483,23.372ZM55.114,24.754c.422-.137.82-.284,1.225-.43a5.519,5.519,0,0,0-1.225.43ZM56.129,27a4.052,4.052,0,0,0,.96-.292A8.994,8.994,0,0,0,56.129,27ZM69.41,22.638a.445.445,0,0,0-.378.729C69.048,23.071,68.955,22.721,69.41,22.638Zm.354-.208a1.889,1.889,0,0,1,.7-.341C70.118,22.123,69.7,22.322,69.764,22.43Zm5.484-3.222a2.269,2.269,0,0,1-1.276-.319A1.635,1.635,0,0,0,75.248,19.208ZM70.8,16.769c.44.052.752.346,1.017.344-.38-.1-.445-.318-1.017-.344Zm.962-2.2a2.274,2.274,0,0,1,.876-.333A1.131,1.131,0,0,0,71.762,14.573Zm-.384-.988c-.392-.021-.889,0-.94-.154-.237.093.657.26.94.154ZM61.919,32.039a9.908,9.908,0,0,0-4.344.886,2.31,2.31,0,0,0,1.619.334,5.939,5.939,0,0,1,1.314-.5,14.52,14.52,0,0,0,3.109-.233,3.006,3.006,0,0,1,.748-.009c.079-.139.159-.278.239-.42C63.826,32.159,62.831,32.036,61.919,32.039Z" transform="translate(-54.298 -9.317)" fill="#fff"/>
      <path id="Path_11" data-name="Path 11" d="M74.415,18.27a1.635,1.635,0,0,1-1.276-.319c-.208-.516,1.973-.663,2.793-.844.492-.064,1.345.048,1.977.052,1.813-.131-.5-.825-1.693-.6a17.315,17.315,0,0,0-2.813-.575,3.905,3.905,0,0,1-2.418.189c-.265,0-.576-.292-1.017-.344-.67-.01-.741.273-1.473.233a2.588,2.588,0,0,0-.153-.418.58.58,0,0,1,.031-.67,1.179,1.179,0,0,1,.365-.431c.908.025,1.587-.062,2.412-.078a2.021,2.021,0,0,1,.859.039c1.251.12,3.355.557,4.38.2-.31-.564-2.918-.5-3.936-.476a3.922,3.922,0,0,1-1.2-.054c-.562-.044-.391-.343-.32-.537a1.133,1.133,0,0,1,.876-.333c.825-.1,2.142.329,2.668.008a4.784,4.784,0,0,0-.759-.332c-.422-.217-.525-.5-1.092-.572a9.747,9.747,0,0,0-2.077.242c-.283.1-1.177-.062-.94-.155-.357-1.359,2.248-1.919,5.84-1.6-.141-.338-1.822-.6-3.074-.512a3.828,3.828,0,0,0-1.616-.409l-.945-.043c-.44-.068-.725.075-.946,0,.06-.639-.2-1.2-1.133-1.544-.753.088-.5.614-.3.919a.287.287,0,0,1-.021.447,15.177,15.177,0,0,1-3.56.7,4.38,4.38,0,0,1-.946,0c-.8-.046-1.235.082-1.225.429a4.6,4.6,0,0,0,1.894-.026,6.342,6.342,0,0,0,3.25.445c.6.355-.19.616-.976.627-.123.079-.6-.013-.861,0a5.346,5.346,0,0,0-1.724.071,5.248,5.248,0,0,1-1.225.43c-1.152-.043-1.676.222-1.754.7a8.261,8.261,0,0,0,1.9-.25,2.888,2.888,0,0,1,1.031.046,3.031,3.031,0,0,0,1.814-.142,11.254,11.254,0,0,1,1.267.505,2.344,2.344,0,0,1-1.665.671c-.642.016-1.381-.16-1.888-.123-.769.057-1.36.5-2,.507-.52,0-1.057-.254-1.456-.141a3.64,3.64,0,0,1-.962.33c-.254.13-.524.251-.539.5,1.478.245,2.315-.361,3.54-.251.463.042.839.264,1.278.282a10.145,10.145,0,0,0,1.385-.2,21.57,21.57,0,0,1,2.839.016c.125.049.127.146.249.2a.419.419,0,0,1-.026.559c.059.425-.911.539-1.824.365a2.019,2.019,0,0,1-.858-.039c-.115.033-.319.022-.433.055a3.726,3.726,0,0,1-1.049.363c-1.346-.142-3.1-.444-4.125-.112-.328.106-.62.23-.962.33-.138.123-.441.165-.447.353,1.151.333,1.259-.287,2.336-.267.379.006.835.167,1.2.2,1.059.1,3.034.051,2.993.4a7.225,7.225,0,0,1-1.564.34c-.762.124-1.194.173-1.735.294-.032-.085-.455-.021-.512-.1A10.826,10.826,0,0,1,58.6,17.78c-1.551.017-2.48.337-2.966.874.086,0,.1.035.17.045a7.308,7.308,0,0,1,1.2.017c1.426,0,2.25-.3,3.544-.362,2.1.854,3.3-.225,5.333.054.593.092,1.159.387,1.09.609.165.133.166.328.236.5.2.1.072.566-.192.439a12.751,12.751,0,0,1-2.839-.016c-.742.033-1.07.413-1.824.366a2.021,2.021,0,0,1-.859-.039,19.955,19.955,0,0,0-6.557.376c-.552.441-1.419.728-1.443,1.427a2.7,2.7,0,0,0,1.123-.1,6.574,6.574,0,0,1,1.228-.5c.883-.174,1.439.219,2.225.25a12.784,12.784,0,0,0,2.255-.383c.65.152.759.388,1.445.4.751.015,1.052-.4,1.826-.4,0,.023.01.045.084.041.292-.037.444.293.669.4.52.074.769-.145,1.295-.091.726.076.8.425,1,.754.135.156.168.792-.2.7a7.291,7.291,0,0,1-2.489-.15,6.618,6.618,0,0,1-1.81.068,9.642,9.642,0,0,1-2.339.342,3.923,3.923,0,0,1-1.2-.054,1.579,1.579,0,0,1-.513-.06,7.308,7.308,0,0,1-1.2-.017,4.31,4.31,0,0,0-1.382.124c-.4.145-.8.293-1.225.43-.424.212-.843.426-.814.859.719.03.831-.227,1.561-.266.868-.046,1.772.335,2.482.3.519-.027.791-.4,1.308-.389.732.012,1.122.488,1.785.491l.858.039c.248.064.263.217.416.317a2.015,2.015,0,0,1-1.48.381,10.827,10.827,0,0,1-1.462-.029,9.2,9.2,0,0,0-2.679.252,4.007,4.007,0,0,1-.96.292c-.59.182-1.5.209-1.578.638,1.21.352,2.226-.3,3.453-.255.643.025,1.327.279,1.967.276.535,0,1.088-.229,1.558-.191a12.888,12.888,0,0,1,1.273.393c.745.153,2.191.113,2.212.548a6.4,6.4,0,0,1-2.33.156c-.718.026-1.63.2-2.422.264-.846.069-2.014.139-1.75.63,1.632.265,2.36-.479,3.806-.425.805.03,1.5.347,2.48.336.554-.006.782-.2,1.414-.056a27.918,27.918,0,0,1,1.932-2.825,13.674,13.674,0,0,1,2.075-2.093l-.027-.006A4.921,4.921,0,0,1,68.5,23.3a1.877,1.877,0,0,0-.3-.872.445.445,0,0,1,.378-.729c.159-.049.209-.151.354-.208-.064-.109.354-.308.7-.341.667.216,1.178-.094,1.812-.1a5.248,5.248,0,0,1,1.39.166c.933-.494,1.884-.932,2.813-1.333a7.358,7.358,0,0,0-1.722-.4c-1.473-.1-2.913.651-4.917.263-.677-.73.378-1.425,2.457-1.045l1.546.069c.629.058,1.034-.236,1.732-.22.323.007.688.128,1.025.158.761.068,1.615.071,2.434.111l.579-.241c-.084,0-.169,0-.253-.006-1.245-.086-2.571-.646-4.116-.3ZM63.4,29.34a4.14,4.14,0,0,0-1.558.191c-.252.036-.546,0-.862.036-.514.054-.86.233-1.216.243-.877.026-1.753-.241-2.569-.265-1.645-.047-3.5.5-2.983,1.246,1.478.428,2.086-.443,3.375-.408.743.021,1.259.29,1.966.276,1.028-.022,1.334-.474,2.516-.446a2.021,2.021,0,0,1,.859.039l.172.008a1.669,1.669,0,0,1,1.049.227q.307-.545.631-1.105C64.44,29.423,63.83,29.336,63.4,29.34Z" transform="translate(-53.465 -8.379)" fill="#fff"/>
      <path id="Path_12" data-name="Path 12" d="M72.116,17.918l.858.039A2.019,2.019,0,0,0,72.116,17.918Zm.061.525.945.043v-.038a4.38,4.38,0,0,0-.946,0Z" transform="translate(-62.888 -13.183)" fill="#fff"/>
      <path id="Path_13" data-name="Path 13" d="M67.97,18.945,66.94,18.9l0,.037a5.307,5.307,0,0,0,1.033.01Zm7.266,1.037,1.031.047A2.9,2.9,0,0,0,75.236,19.982ZM65.183,27.1l-.859-.039A2.021,2.021,0,0,0,65.183,27.1Zm4.254,1.05c-.048-.128.127-.341-.067-.414C69.419,27.867,69.244,28.08,69.437,28.153ZM75.463,18.8c.632,0,1.485.116,1.977.052-.631,0-1.485-.117-1.977-.052ZM59.876,28.356l1.8.081a8.761,8.761,0,0,0-1.8-.081Z" transform="translate(-56.704 -13.633)" fill="#fff"/>
    </g>
  </g>
</svg>
